<?xml version="1.0" encoding="UTF-8"?>
<svg version="1.1" xmlns="http://www.w3.org/2000/svg" width="884" height="1279">
<path d="M0 0 C2.1539156 -0.00697899 4.307831 -0.01401995 6.46174622 -0.02111816 C13.30783341 -0.04039707 20.15388862 -0.04529381 27 -0.046875 C28.74715113 -0.04775871 28.74715113 -0.04775871 30.52959824 -0.04866028 C64.50472952 -0.06079748 98.3459223 0.10774803 132.22253418 2.96881104 C135.08825758 3.21057063 137.95466011 3.4425838 140.82128906 3.67333984 C153.23221651 4.68353086 165.62148552 5.85272367 178 7.203125 C179.08519928 7.32140656 179.08519928 7.32140656 180.19232178 7.44207764 C313.63901056 22.13786684 313.63901056 22.13786684 347.9609375 63.5703125 C359.65499792 79.55389727 363.93774164 97.98787494 367.1875 117.140625 C367.47280918 118.77213118 367.75905821 120.40347322 368.04614258 122.03466797 C369.6945618 131.44462266 371.28249615 140.86487564 372.87236023 150.28486633 C373.75429665 155.50338671 374.6419501 160.7209303 375.52944946 165.93850708 C376.17638199 169.76240847 376.81253256 173.58799712 377.44799805 177.41381836 C377.85423631 179.81501227 378.26087573 182.21613835 378.66796875 184.6171875 C378.84384521 185.69506027 379.01972168 186.77293304 379.20092773 187.88346863 C381.33749242 200.34544989 383.91227683 213.04203045 393.80859375 221.64453125 C399.34023016 225.45257873 405.91156677 227.11920033 412.25 229.140625 C436.18818061 236.79339455 452.40383426 248.89210205 464.0859375 271.38964844 C473.90194441 290.86435446 477.04069594 313.00899564 481.3125 334.203125 C481.48948425 335.07846893 481.66646851 335.95381287 481.84881592 336.85568237 C482.35854965 339.38721338 482.86208494 341.9198913 483.36328125 344.453125 C483.51405624 345.20231705 483.66483124 345.95150909 483.82017517 346.72340393 C489.12914656 373.85429027 486.38537571 401.72720215 471.140625 425.234375 C467.77074118 429.90793651 464.00610256 434.07251834 460 438.203125 C459.17435547 439.13898438 459.17435547 439.13898438 458.33203125 440.09375 C444.68898254 455.05057377 422.92121432 460.42965595 403.91796875 464.93359375 C397.18255307 466.64072676 391.78598198 469.76840606 388.00590492 475.78552299 C384.92698151 481.44996476 384.06271988 486.73692575 383.41797543 493.10111332 C383.29966167 494.14950162 383.18134791 495.19788992 383.05944889 496.27804757 C382.69065771 499.58491852 382.34390023 502.89358214 382 506.203125 C381.77850059 508.25018495 381.55629376 510.29716849 381.3333379 512.34407032 C380.63403573 518.83857315 379.97249582 525.33672785 379.31239319 531.83531189 C379.05714819 534.32803425 378.8016642 536.82073214 378.54596514 539.31340796 C377.99536509 544.68613013 377.44639731 550.05901499 376.89894104 555.43205833 C376.08472877 563.42306178 375.2673516 571.41373939 374.44934692 579.4043554 C373.07183597 592.8612045 371.69672416 606.31829769 370.32292366 619.77552605 C368.44457033 638.17480384 366.56257129 656.57370747 364.67961841 674.97251505 C363.79989453 683.56855761 362.92034245 692.16461775 362.04083157 700.76068211 C361.9528091 701.62098352 361.86478664 702.48128494 361.77409683 703.3676561 C359.68290926 723.80658565 357.59337483 744.24568415 355.50415039 764.68481445 C355.41284184 765.57808996 355.32153329 766.47136547 355.22745781 767.39170994 C353.28331805 786.41135515 351.33940398 805.43102343 349.39561835 824.45070484 C348.4725117 833.48317111 347.54937466 842.51563427 346.6262207 851.5480957 C346.53511607 852.43950181 346.44401143 853.33090792 346.35014605 854.24932634 C344.26636767 874.6377913 342.18205004 895.02620092 340.09596157 915.41442966 C339.96410015 916.70316968 339.96410015 916.70316968 339.82957487 918.01794484 C338.95141395 926.60046814 338.07315268 935.18298116 337.19474571 943.76547928 C335.31496959 962.13206948 333.43681989 980.49882381 331.56208921 998.86592974 C330.19454801 1012.26371606 328.8248332 1025.66127869 327.45293886 1039.05861997 C326.71158864 1046.29898919 325.97122457 1053.53945581 325.23372269 1060.78021812 C320.13526886 1110.8261913 320.13526886 1110.8261913 317.76731873 1130.69313049 C317.619717 1131.95004666 317.47211527 1133.20696283 317.32004076 1134.50196737 C316.07133525 1144.6463905 314.08513796 1154.45725328 311 1164.203125 C310.78649902 1164.88503906 310.57299805 1165.56695313 310.35302734 1166.26953125 C297.95414321 1204.71625786 269.56777689 1235.51404119 234.17919922 1254.22851562 C184.0111739 1279.57495353 126.5091236 1279.72787736 71.64080811 1279.46740723 C66.87838733 1279.44839881 62.11600533 1279.44430491 57.35355186 1279.44055462 C23.79895532 1279.41165722 -9.76525997 1279.28715188 -43.25 1276.890625 C-44.16237427 1276.82687683 -45.07474854 1276.76312866 -46.01477051 1276.69744873 C-85.08915431 1273.93748223 -125.21451439 1269.53710968 -160 1250.203125 C-161.05058594 1249.63980469 -162.10117188 1249.07648438 -163.18359375 1248.49609375 C-192.07251252 1232.45504263 -212.86915757 1206.52072711 -223 1175.203125 C-226.83848544 1160.91192581 -228.42654304 1146.47011592 -229.94165039 1131.7824707 C-230.23123688 1129.0400516 -230.52393422 1126.29796583 -230.81632328 1123.55584431 C-231.49588718 1117.16465828 -232.16666962 1110.77258753 -232.83299637 1104.3800087 C-233.66122268 1096.43486586 -234.49530477 1088.49035738 -235.33350754 1080.54626083 C-235.44995914 1079.44253556 -235.56641075 1078.33881029 -235.68639119 1077.20163879 C-235.92827556 1074.90915664 -236.17016327 1072.61667483 -236.41205416 1070.32419337 C-239.86428556 1037.59585659 -243.28524105 1004.86425574 -246.70393137 972.13240268 C-247.0108661 969.19378113 -247.31783831 966.25516349 -247.62481106 963.3165459 C-250.57842657 935.04180803 -253.53060676 906.76692045 -256.47939968 878.49167919 C-257.1375288 872.18121793 -257.79568261 865.87075923 -258.45385742 859.56030273 C-258.53558841 858.77666651 -258.6173194 857.99303029 -258.70152708 857.18564751 C-261.36470994 831.65155109 -264.03512941 806.11821811 -266.70948705 780.58528986 C-269.47496296 754.18212337 -272.23407025 727.77829944 -274.98486569 701.37359922 C-275.37331151 697.64494239 -275.76182501 693.91629261 -276.15037727 690.18764687 C-276.2268082 689.45416897 -276.30323912 688.72069107 -276.38198614 687.96498657 C-277.60656387 676.21489803 -278.83771113 664.46550697 -280.07133968 652.71636561 C-281.30884555 640.92881405 -282.53894868 629.14050862 -283.76210069 617.35145887 C-284.42350623 610.97866452 -285.08803243 604.60623774 -285.76118469 598.23467255 C-286.37816689 592.39407132 -286.98595834 586.55258639 -287.58671416 580.71029452 C-287.80448849 578.60789295 -288.02551216 576.5058246 -288.25028127 574.40415933 C-289.30871351 564.49121765 -290.18516642 554.64155987 -290.25492954 544.66617298 C-290.26388569 543.89302792 -290.27284184 543.11988286 -290.28206938 542.32330916 C-290.22762927 533.59573366 -287.09275268 528.24735891 -281.375 521.953125 C-272.33580552 513.52791354 -261.9371486 509.67080565 -249.73046875 509.95703125 C-241.09229057 510.7355795 -233.35232437 514.79158534 -227.27734375 520.94921875 C-215.23215355 535.76695912 -215.48651163 556.23334432 -213.62246704 574.35771179 C-213.3887557 576.60669617 -213.15475802 578.8556508 -212.92050016 581.10457832 C-212.27999075 587.26137737 -211.64345078 593.41858125 -211.00755453 599.57585824 C-210.39072083 605.54225314 -209.77083929 611.50833083 -209.15099026 617.47441303 C-207.88320044 629.67772977 -206.61820706 641.88133479 -205.35463333 654.08508873 C-203.54732426 671.53964479 -201.73458076 688.99363417 -199.92073619 706.44751213 C-199.19179351 713.46205767 -198.46302536 720.47662136 -197.73425865 727.49118519 C-197.65329662 728.27045761 -197.57233458 729.04973003 -197.48891915 729.85261676 C-195.56322849 748.38801656 -193.63925812 766.92359482 -191.71582031 785.45922852 C-191.63170309 786.26983021 -191.54758586 787.08043191 -191.46091963 787.91559729 C-189.49995836 806.81268437 -187.53982067 825.70985665 -185.58111572 844.60717773 C-185.49695657 845.41912794 -185.41279743 846.23107814 -185.326088 847.0676329 C-184.90173399 851.16172645 -184.47738593 855.25582062 -184.05303828 859.34991483 C-183.96917284 860.15904399 -183.88530739 860.96817315 -183.79890057 861.80182138 C-183.62962804 863.43495576 -183.46035647 865.06809025 -183.29108587 866.70122483 C-180.4884129 893.74134575 -177.68135091 920.78100829 -174.86951822 947.82017829 C-174.47162795 951.64643326 -174.07379668 955.47269437 -173.67600632 959.29895973 C-173.59772943 960.05188554 -173.51945255 960.80481135 -173.43880364 961.5805531 C-172.18435546 973.64819555 -170.93463127 985.71632267 -169.68683713 997.78465479 C-168.43026739 1009.93712938 -167.16909076 1022.08911878 -165.90330102 1034.24063655 C-165.2189632 1040.8115458 -164.53681103 1047.38266808 -163.86030388 1053.95438957 C-163.23906647 1059.98881555 -162.61174235 1066.02257874 -161.97988562 1072.05590174 C-161.75421725 1074.22060122 -161.53065379 1076.38552158 -161.30960019 1078.55069717 C-160.12967126 1090.09523288 -158.72851479 1101.58023269 -156.98396873 1113.05424213 C-156.74302951 1114.64861042 -156.74302951 1114.64861042 -156.49722282 1116.27518816 C-152.42773402 1142.25697704 -143.97306405 1168.73644367 -122.625 1185.640625 C-96.58347969 1204.40345951 -65.38890135 1210.0267028 -33.81616211 1210.51611328 C-32.64997345 1210.53737274 -31.48378479 1210.5586322 -30.28225708 1210.58053589 C-26.44734717 1210.6491551 -22.61236948 1210.71165403 -18.77734375 1210.7734375 C-16.75779032 1210.80731629 -14.73824458 1210.84163214 -12.71869856 1210.87594974 C-6.35655295 1210.98389635 0.00565624 1211.08726294 6.36791992 1211.18798828 C12.12323838 1211.2791941 17.8784205 1211.37629036 23.63354492 1211.47900391 C77.33721662 1212.98341744 77.33721662 1212.98341744 130.875 1209.578125 C131.58974487 1209.49520203 132.30448975 1209.41227905 133.04089355 1209.32684326 C144.8563303 1207.94466373 156.5624206 1206.03589845 168.25 1203.828125 C168.98200623 1203.69331726 169.71401245 1203.55850952 170.46820068 1203.4196167 C192.31746353 1199.34093096 214.38321938 1191.21177663 228.3125 1172.953125 C237.75501185 1158.97585175 242.26343029 1144.59412327 244.49486923 1128.0695076 C244.62473295 1127.10966739 244.75459667 1126.14982718 244.88839565 1125.16090091 C246.10470817 1115.87977026 246.90135429 1106.5840985 247.60956642 1097.25253072 C249.03339656 1078.62314428 250.74182476 1060.02779798 252.6449585 1041.44171143 C252.82244217 1039.70822696 252.82244217 1039.70822696 253.00351137 1037.9397226 C253.75797347 1030.58809017 254.51979455 1023.23723143 255.2832129 1015.88652444 C255.91080998 1009.83409132 256.53383169 1003.78118847 257.15700294 997.72829835 C258.42752669 985.38887854 259.70214121 973.04988488 260.97908783 960.71112823 C262.72187863 943.87038058 264.4581011 927.02895998 266.19265023 910.18736169 C267.00509254 902.29900708 267.81783126 894.41068301 268.63063431 886.52236557 C268.71191686 885.73350622 268.79319942 884.94464686 268.87694508 884.13188268 C270.80082887 865.46091853 272.72750869 846.79024312 274.65478516 828.11962891 C274.73885964 827.30513886 274.82293413 826.49064882 274.90955633 825.65147726 C276.79002133 807.43415855 278.67103627 789.21689667 280.55257965 770.99968932 C281.3239841 763.53088335 282.0953491 756.0620733 282.86669922 748.59326172 C282.99365184 747.3640252 282.99365184 747.3640252 283.12316917 746.10995561 C285.05616399 727.39327373 286.98814136 708.67648774 288.91653824 689.95933151 C288.9975816 689.1727209 289.07862496 688.38611028 289.16212418 687.57566298 C289.97109153 679.72351694 290.77985458 671.87134988 291.58832576 664.01915273 C293.32136304 647.18753428 295.05758598 630.35625354 296.80041341 613.52564581 C298.0678198 601.28563021 299.33097669 589.0451824 300.58973089 576.80427393 C301.2711014 570.1794978 301.95462458 563.55495628 302.64343452 556.93094826 C303.27396304 550.86708092 303.89884935 544.80265945 304.51928452 538.73775133 C304.74447646 536.54630278 304.97173564 534.35506544 305.2012901 532.16406956 C308.17572476 510.02290065 308.17572476 510.02290065 301.375 489.453125 C294.50799298 482.9475394 287.75833 481.79655457 278.5715332 481.98754883 C270.35976075 482.30564349 262.18939213 483.25239586 254.02056885 484.11166382 C208.48075425 488.86621253 162.75566151 491.64471307 117 493.203125 C115.74962952 493.2469632 115.74962952 493.2469632 114.47399902 493.29168701 C16.2685023 496.72228859 -82.52624966 492.84770526 -305.125 464.953125 C-306.08960144 464.79240509 -307.05420288 464.63168518 -308.04803467 464.46609497 C-338.01438426 459.44083715 -338.01438426 459.44083715 -349.3125 453.453125 C-350.30721313 452.94096436 -350.30721313 452.94096436 -351.32202148 452.41845703 C-357.12076695 449.33454348 -362.08333504 445.55000823 -367 441.203125 C-367.59683594 440.74808594 -368.19367188 440.29304688 -368.80859375 439.82421875 C-384.71622841 427.51692635 -393.41724318 406.55817725 -397.6015625 387.45703125 C-399.86846431 368.9439998 -397.24114408 351.21726658 -393.28341675 333.14741516 C-392.26553338 328.4986117 -391.33010418 323.83920055 -390.44140625 319.1640625 C-384.48679793 287.95370164 -377.12123229 258.36169852 -350.25 238.515625 C-320.86093138 219.01489715 -290.40480223 221.79258458 -257.29611206 227.56170654 C-250.44992028 228.75427597 -243.59143456 229.87309298 -236.73378563 230.99753189 C-235.20227325 231.24885748 -233.67087135 231.50085725 -232.13958168 231.75353622 C-211.17004059 235.21357192 -190.12845213 237.91539813 -169 240.203125 C-167.4998938 240.36590942 -167.4998938 240.36590942 -165.96948242 240.53198242 C-139.79232776 243.35284104 -113.57742766 245.5699384 -87.3125 247.390625 C-85.64131607 247.50884613 -85.64131607 247.50884613 -83.93637085 247.62945557 C-42.56045967 250.52271514 -1.18609481 251.54300832 40.28369141 251.46386719 C46.29579325 251.45247389 52.30771788 251.45927062 58.31981373 251.47074413 C99.71880246 251.53768803 141.01307505 250.31072599 182.3125 247.390625 C184.11855209 247.2656514 184.11855209 247.2656514 185.96109009 247.13815308 C212.02311329 245.32638408 238.02508204 242.99374455 264 240.203125 C264.99819763 240.09657593 265.99639526 239.99002686 267.02484131 239.88024902 C272.76829315 239.2641924 278.50828823 238.62452023 284.24502563 237.94869995 C285.97393373 237.74617582 287.70340376 237.54838251 289.43344116 237.35574341 C291.78866735 237.09079977 294.14029466 236.80460562 296.4921875 236.51171875 C297.17085373 236.43887665 297.84951996 236.36603455 298.54875183 236.29098511 C303.25207397 235.66958675 306.29923071 234.13740843 310 231.203125 C313.37453345 226.14132482 312.33470087 220.48492795 311.27436829 214.67094421 C310.94004441 213.05690779 310.59589338 211.44488456 310.2434082 209.8347168 C310.05636826 208.94559601 309.86932831 208.05647522 309.67662048 207.14041138 C309.06069895 204.22564172 308.43133653 201.31397993 307.80078125 198.40234375 C307.36388288 196.35897223 306.92746408 194.31549812 306.49150085 192.27192688 C305.5770628 187.99642363 304.65574977 183.72247344 303.72973633 179.44946289 C302.55004039 174.00246423 301.38915768 168.55165655 300.23368549 163.09947491 C299.3367881 158.87922189 298.4289626 154.66137468 297.51802635 150.44413185 C297.08596124 148.43686138 296.65739979 146.42883313 296.23256874 144.42001915 C291.61259954 121.08617175 291.61259954 121.08617175 276.5 103.515625 C263.37620845 96.25319702 247.77709644 94.03532087 233.25 91.203125 C232.14574677 90.98557556 231.04149353 90.76802612 229.90377808 90.54388428 C186.13038013 81.94202322 141.94749517 77.30449759 97.38549805 75.31027222 C95.69283908 75.23424461 94.00030339 75.15544971 92.30786133 75.07473755 C71.03990093 74.07799619 49.78654135 74.001376 28.5 74.015625 C27.60505829 74.01589188 26.71011658 74.01615875 25.78805542 74.01643372 C-1.52125796 74.02664343 -28.75032189 74.22652361 -56 76.203125 C-56.95749146 76.2710022 -57.91498291 76.33887939 -58.90148926 76.40881348 C-92.61718428 78.8042854 -126.06012108 81.96199156 -159.375 87.765625 C-160.24094788 87.91351471 -161.10689575 88.06140442 -161.99908447 88.21377563 C-164.44731376 88.63565095 -166.89181976 89.07452489 -169.3359375 89.51953125 C-170.06862854 89.6444696 -170.80131958 89.76940796 -171.55621338 89.89813232 C-174.33212414 90.42070053 -176.64094828 90.97576566 -179.04150391 92.49584961 C-180.25844316 94.27219182 -180.25844316 94.27219182 -179.6875 96.890625 C-179.460625 97.65375 -179.23375 98.416875 -179 99.203125 C-168.15273658 102.07868686 -157.33607671 104.4031594 -146.25 106.140625 C-145.46341003 106.26530151 -144.67682007 106.38997803 -143.86639404 106.51843262 C-110.6334247 111.7223995 -76.77501281 114.58981982 -43.17425537 116.1031189 C-41.62252736 116.1744915 -40.07098729 116.24999969 -38.51959229 116.32827759 C-16.72813192 117.41562754 5.06221197 117.40428033 26.875 117.390625 C27.82986172 117.39035812 28.78472343 117.39009125 29.76852036 117.38981628 C58.22219124 117.37983517 86.60726565 117.2534224 115 115.203125 C115.96395691 115.1352478 116.92791382 115.06737061 117.92108154 114.99743652 C139.25768611 113.49227882 160.54799776 111.81165324 181.75 108.953125 C218.31724839 104.07067844 218.31724839 104.07067844 230.69921875 113.19140625 C238.61954848 119.88610831 244.3742072 127.31212749 245.3359375 137.90234375 C245.46265344 150.84004096 243.18747766 160.52514546 234 170.203125 C223.496983 180.57003379 206.58063137 180.40891442 192.6875 182.140625 C191.66744873 182.2694104 190.64739746 182.3981958 189.59643555 182.53088379 C119.47520403 191.3347225 48.6011507 193.76213111 -22 191.203125 C-22.85456787 191.17283203 -23.70913574 191.14253906 -24.58959961 191.11132812 C-80.52040885 189.103309 -136.06378985 184.04756746 -191 173.203125 C-192.23556641 172.95981445 -193.47113281 172.71650391 -194.74414062 172.46582031 C-230.01048237 165.34222023 -273.80139553 154.11642182 -295.3125 122.890625 C-302.72569317 111.08442847 -304.12033427 98.91554993 -302 85.203125 C-297.76687416 67.99692814 -286.79130549 55.39979163 -272 46.203125 C-213.98960491 11.25235469 -136.94131329 7.73330221 -71 2.953125 C-69.85707489 2.87013153 -68.71414978 2.78713806 -67.53659058 2.70162964 C-64.21221245 2.4629165 -60.88749397 2.22996537 -57.5625 2 C-56.61903214 1.93355789 -55.67556427 1.86711578 -54.70350647 1.79866028 C-36.4721125 0.57253209 -18.26977689 0.03692418 0 0 Z M-312 304.203125 C-323.67181756 319.14413221 -326.2922554 342.57244918 -326.5 360.953125 C-326.51836914 361.83282959 -326.53673828 362.71253418 -326.55566406 363.61889648 C-326.48796583 370.7414273 -324.91905561 377.59219979 -320.35913086 383.23291016 C-309.99100409 393.1887356 -294.90220989 393.67350495 -281.375 395.453125 C-279.17815715 395.7500855 -276.98138159 396.04754411 -274.78466797 396.34545898 C-267.5262315 397.3223367 -260.2635508 398.26514382 -253 399.203125 C-251.0974646 399.44993011 -251.0974646 399.44993011 -249.15649414 399.70172119 C-153.05807754 412.15216424 -56.65107406 420.90409883 40.31954956 420.58984756 C44.27146198 420.57787054 48.22336833 420.57091765 52.17529297 420.56503296 C89.97719787 420.5024708 127.66824676 420.11811221 165.38812256 417.45635986 C169.19129684 417.18971285 172.99517639 416.93558148 176.79931641 416.68310547 C229.8279439 413.13954436 282.69004099 407.81630409 335.3716507 400.80677795 C337.52879959 400.52010362 339.68622483 400.2355848 341.84368896 399.95129395 C378.16611264 396.67977358 378.16611264 396.67977358 407.4453125 377.484375 C415.78979469 364.87493525 412.53715842 344.73117443 409.9765625 330.66796875 C407.75175923 319.75814152 402.88487944 308.33402477 393.5625 301.765625 C378.95425439 292.3227259 359.30889942 298.22591992 343.51376343 301.07705688 C336.93159382 302.26157337 330.34094025 303.39678149 323.75 304.53125 C323.08322927 304.64632715 322.41645855 304.7614043 321.72948265 304.87996864 C270.26547168 313.7500668 218.24944628 319.29938761 166.17236328 322.97595215 C163.08425691 323.19709137 159.99722559 323.42991549 156.91015625 323.66503906 C79.25421604 329.46366382 -0.35613439 328.98131151 -78 323.203125 C-80.49346612 323.02408699 -82.98695648 322.8453863 -85.48046875 322.66699219 C-119.20408937 320.22296115 -152.80817811 316.88498271 -186.34075928 312.54693604 C-188.82002611 312.22639368 -191.29983629 311.9104278 -193.77978516 311.59521484 C-213.27924467 309.09427656 -232.46370292 305.45474224 -251.68139648 301.32495117 C-283.5373066 293.22977594 -283.5373066 293.22977594 -312 304.203125 Z " fill="#ffffff" transform="translate(398,-0.203125)"/>
<path d="M0 0 C-0.64869938 12.77638808 -1.71597027 25.48828153 -2.92906189 38.2223053 C-3.12674369 40.32094886 -3.32416336 42.41961712 -3.52134615 44.51830763 C-4.05981074 50.24126464 -4.60198542 55.96386481 -5.14481103 61.68640959 C-5.73119029 67.8750909 -6.3140911 74.0641 -6.89744568 80.25306702 C-7.97327327 91.66120696 -9.0518117 103.06908797 -10.1317597 114.47683841 C-11.12958524 125.01723431 -12.1262348 135.55774061 -13.12173653 146.09835625 C-13.18792218 146.79912984 -13.25410784 147.49990344 -13.32229912 148.22191259 C-13.59100518 151.06698902 -13.85970576 153.91206597 -14.12839815 156.75714369 C-16.64585275 183.41330085 -19.16670895 210.06913534 -21.68917063 236.7248191 C-23.92750368 260.3782271 -26.1630751 284.03189454 -28.39624023 307.68579102 C-28.96824168 313.74445489 -29.54024655 319.80311844 -30.11228085 325.86177921 C-30.18271722 326.60780153 -30.2531536 327.35382384 -30.32572441 328.1224529 C-32.19505553 347.92087841 -34.06663833 367.71909106 -35.9389115 387.51723856 C-36.14049332 389.64887048 -36.34207419 391.78050249 -36.54365364 393.91213464 C-36.67736105 395.32604225 -36.81107005 396.7399497 -36.94478067 398.153857 C-37.9406947 408.68528252 -38.93546855 419.21681533 -39.92970085 429.74839973 C-41.06074752 441.72910257 -42.19361121 453.70963181 -43.32866042 465.68995626 C-43.90732387 471.798122 -44.48522929 477.90635683 -45.06102753 484.0147934 C-45.58883997 489.61391464 -46.11891182 495.21281735 -46.65073509 500.81155901 C-46.84202216 502.82941246 -47.03250835 504.84734204 -47.22208082 506.86535729 C-50.14939722 538.0117172 -53.72213551 566.02214695 -79.00292969 587.46606445 C-99.8369115 604.26775661 -123.94502224 605.68580281 -149.65221786 606.60644913 C-152.6621627 606.71620287 -155.67165236 606.83652209 -158.68120098 606.95658016 C-166.13252693 607.25343544 -173.58445836 607.52806727 -181.03715038 607.7881918 C-185.16409015 607.93280557 -189.29040831 608.08796675 -193.41650391 608.25488281 C-223.26409949 609.45663913 -252.95489187 608.49452305 -282.78656006 607.14318848 C-285.84657743 607.00683639 -288.90679246 606.8781087 -291.96728516 606.75292969 C-296.39038049 606.57191737 -300.81271672 606.37868906 -305.23471069 606.17251587 C-306.7926869 606.10080819 -308.35081334 606.03227273 -309.90908813 605.96737671 C-334.28801896 604.92906061 -354.41153121 598.29483826 -372 581 C-372.69996094 580.31292969 -373.39992188 579.62585937 -374.12109375 578.91796875 C-392.21436801 559.90768644 -394.58232104 535.4845552 -396.98684692 510.56484985 C-397.17800726 508.61168318 -397.36948402 506.65854745 -397.56124771 504.70543993 C-398.08445919 499.36709724 -398.60317053 494.02832563 -399.12110877 488.6894691 C-399.68152026 482.92102009 -400.24612322 477.15298112 -400.81018066 471.3848877 C-401.91321552 460.09818409 -403.01234107 448.81110309 -404.11006393 437.52388175 C-405.00211712 428.3522135 -405.89560954 419.18068651 -406.7901268 410.00925827 C-406.98122026 408.04997616 -406.98122026 408.04997616 -407.17617419 406.05111258 C-407.3701038 404.06280438 -407.56403342 402.07449617 -407.75796936 400.08618858 C-410.17902806 375.26428985 -412.59589992 350.44198503 -415.01085677 325.61949199 C-417.15598844 303.5706998 -419.30473222 281.52226244 -421.45654297 259.47412109 C-423.87560563 234.68749044 -426.29249951 209.90064993 -428.70582473 185.11345994 C-428.96304892 182.47158877 -429.22027558 179.82971783 -429.47750473 177.18784714 C-429.60406383 175.88800692 -429.73062292 174.58816669 -429.86101715 173.24893738 C-430.75348698 164.08425052 -431.64750767 154.91971571 -432.54211807 145.75523758 C-433.63166713 134.59331357 -434.71880343 123.43115771 -435.80283679 112.26869662 C-436.35607639 106.57252238 -436.91040178 100.87645935 -437.46764755 95.18067551 C-437.97749095 89.96908291 -438.48422424 84.75719771 -438.98845576 79.54505925 C-439.17160401 77.65760328 -439.3558964 75.77025793 -439.54143561 73.8830355 C-439.79313422 71.32112144 -440.04068071 68.75883872 -440.28718758 66.19642067 C-440.36041577 65.46127473 -440.43364397 64.7261288 -440.5090912 63.96870571 C-440.9222817 59.61749064 -441.06506829 55.36369661 -441 51 C-435.43841465 51.97842076 -429.89351947 53.002352 -424.37109375 54.18359375 C-342.10862315 71.72617988 -266.99553606 52.1252558 -191.234375 19.61669922 C-127.26559912 -7.82329133 -68.00432235 -22.74791833 0 0 Z " fill="#FFDD00" transform="translate(664,570)"/>
<path d="M0 0 C0.66 0.33 1.32 0.66 2 1 C1.01 1.66 0.02 2.32 -1 3 C-0.67 2.01 -0.34 1.02 0 0 Z " fill="#FFFFFF" transform="translate(428,1186)"/>
</svg>
